# xmcd
#
# Track frame offsets: 
#        150
#        24440
#        59520
#        70100
#        89960
#        105760
#        121950
#        146437
#        173475
#
# Disc length: 2741 seconds
#
# Revision: 5
# Processed by: cddbd v1.5.2PL0 Copyright (c) Steve Scherf et al.
# Submitted via: ExactAudioCopyFreeDBPlugin 1.0
#
DISCID=720ab309
DTITLE=Muddy Waters - Hard Again [RE 1987]
DYEAR=1977
DGENRE=Blues
TTITLE0=Mannish Boy
TTITLE1=Bus Driver
TTITLE2=I Want to Be Loved
TTITLE3=Jealous Hearted Woman
TTITLE4=I Can't Be Satisified
TTITLE5=The Blues Had a Baby and They Named It Rock and Roll (#2)
TTITLE6=Deep Down in Florida
TTITLE7=Crosseyed Cat
TTITLE8=Little Girl
EXTD=YEAR: 1977
EXTT0=Is there any other better beginning track on a CD?  I don't thin
EXTT0=k so.
EXTT1=
EXTT2=
EXTT3=
EXTT4=
EXTT5=
EXTT6=
EXTT7=
EXTT8=
PLAYORDER=
